<svg class="nm-logo__mark" viewBox="0 0 365 80" fill="none" xmlns="http://www.w3.org/2000/svg" role="img" aria-label="NoMercyTV">
    <g clip-path="url(#clip0_8332_42057)">
        <mask id="path-1-inside-1_8332_42057" fill="white">
            <path fill-rule="evenodd" clip-rule="evenodd"
                d="M42.7542 64.5428C39.7638 66.5634 38.2685 67.5737 37.0273 67.505C35.9462 67.4451 34.9458 66.9137 34.2909 66.0514C33.5391 65.0614 33.5391 63.2569 33.5391 59.6477V20.3523C33.5391 16.7432 33.5391 14.9387 34.2909 13.9487C34.9458 13.0863 35.9462 12.5549 37.0273 12.4951C38.2685 12.4264 39.7638 13.4367 42.7542 15.4573L71.8329 35.105C74.2593 36.7445 75.4725 37.5642 75.8966 38.5941C76.2675 39.4947 76.2675 40.5054 75.8966 41.406C75.4725 42.4359 74.2593 43.2556 71.8328 44.8951L42.7542 64.5428ZM89.5391 12.9231C90.8985 12.9231 92.0006 14.0252 92.0006 15.3847V64.6154C92.0006 65.9749 90.8985 67.077 89.5391 67.077H83.6929C82.3334 67.077 81.2314 65.9749 81.2314 64.6154V15.3847C81.2314 14.0252 82.3334 12.9231 83.6929 12.9231H89.5391Z" />
        </mask>
        <path fill-rule="evenodd" clip-rule="evenodd"
            d="M42.7542 64.5428C39.7638 66.5634 38.2685 67.5737 37.0273 67.505C35.9462 67.4451 34.9458 66.9137 34.2909 66.0514C33.5391 65.0614 33.5391 63.2569 33.5391 59.6477V20.3523C33.5391 16.7432 33.5391 14.9387 34.2909 13.9487C34.9458 13.0863 35.9462 12.5549 37.0273 12.4951C38.2685 12.4264 39.7638 13.4367 42.7542 15.4573L71.8329 35.105C74.2593 36.7445 75.4725 37.5642 75.8966 38.5941C76.2675 39.4947 76.2675 40.5054 75.8966 41.406C75.4725 42.4359 74.2593 43.2556 71.8328 44.8951L42.7542 64.5428ZM89.5391 12.9231C90.8985 12.9231 92.0006 14.0252 92.0006 15.3847V64.6154C92.0006 65.9749 90.8985 67.077 89.5391 67.077H83.6929C82.3334 67.077 81.2314 65.9749 81.2314 64.6154V15.3847C81.2314 14.0252 82.3334 12.9231 83.6929 12.9231H89.5391Z"
            fill="#6e56cf" />
        <path
            d="M75.8966 38.5941L75.3276 38.8284L75.8966 38.5941ZM71.8328 44.8951L71.4883 44.3852L71.8328 44.8951ZM75.8966 41.406L76.4656 41.6403L75.8966 41.406ZM34.2909 66.0514L33.8008 66.4236L34.2909 66.0514ZM42.7542 64.5428L42.4097 64.0329L42.7542 64.5428ZM37.0273 67.505L36.9933 68.1194L37.0273 67.505ZM34.2909 13.9487L33.8008 13.5765L34.2909 13.9487ZM42.7542 15.4573L42.4097 15.9672L42.7542 15.4573ZM33.5391 20.3523H32.9237V59.6477H33.5391H34.1544V20.3523H33.5391ZM71.8329 35.105L72.1774 34.5951L43.0987 14.9474L42.7542 15.4573L42.4097 15.9672L71.4883 35.6149L71.8329 35.105ZM42.7542 64.5428L43.0987 65.0527L72.1774 45.405L71.8328 44.8951L71.4883 44.3852L42.4097 64.0329L42.7542 64.5428ZM92.0006 15.3847H92.616C92.616 13.6853 91.2384 12.3077 89.5391 12.3077V12.9231V13.5385C90.5587 13.5385 91.3852 14.3651 91.3852 15.3847H92.0006ZM92.0006 64.6154H92.616V15.3847H92.0006H91.3852V64.6154H92.0006ZM89.5391 67.077V67.6923C91.2384 67.6923 92.616 66.3148 92.616 64.6154H92.0006H91.3852C91.3852 65.635 90.5587 66.4616 89.5391 66.4616V67.077ZM83.6929 67.077V67.6923H89.5391V67.077V66.4616H83.6929V67.077ZM81.2314 64.6154H80.616C80.616 66.3148 81.9936 67.6923 83.6929 67.6923V67.077V66.4616C82.6733 66.4616 81.8468 65.635 81.8468 64.6154H81.2314ZM81.2314 15.3847H80.616V64.6154H81.2314H81.8468V15.3847H81.2314ZM83.6929 12.9231V12.3077C81.9936 12.3077 80.616 13.6853 80.616 15.3847H81.2314H81.8468C81.8468 14.3651 82.6733 13.5385 83.6929 13.5385V12.9231ZM89.5391 12.9231V12.3077H83.6929V12.9231V13.5385H89.5391V12.9231ZM71.8329 35.105L71.4883 35.6149C72.7113 36.4412 73.5935 37.038 74.2264 37.5548C74.858 38.0706 75.1735 38.4544 75.3276 38.8284L75.8966 38.5941L76.4656 38.3598C76.1956 37.704 75.6924 37.163 75.0048 36.6015C74.3185 36.041 73.3808 35.4082 72.1774 34.5951L71.8329 35.105ZM71.8328 44.8951L72.1774 45.405C73.3808 44.5919 74.3184 43.9591 75.0048 43.3986C75.6924 42.8371 76.1956 42.2961 76.4656 41.6403L75.8966 41.406L75.3276 41.1717C75.1735 41.5457 74.858 41.9295 74.2264 42.4453C73.5935 42.9621 72.7113 43.5589 71.4883 44.3852L71.8328 44.8951ZM75.8966 38.5941L75.3276 38.8284C75.6366 39.5789 75.6366 40.4212 75.3276 41.1717L75.8966 41.406L76.4656 41.6403C76.8983 40.5896 76.8983 39.4105 76.4656 38.3598L75.8966 38.5941ZM33.5391 59.6477H32.9237C32.9237 61.4401 32.9231 62.8271 33.0202 63.8879C33.1168 64.9421 33.3167 65.7861 33.8008 66.4236L34.2909 66.0514L34.781 65.6792C34.5133 65.3267 34.3372 64.7734 34.2459 63.7756C34.1551 62.7843 34.1544 61.4645 34.1544 59.6477H33.5391ZM42.7542 64.5428L42.4097 64.0329C40.9043 65.05 39.8104 65.7884 38.9382 66.2682C38.0603 66.7511 37.5033 66.915 37.0613 66.8905L37.0273 67.505L36.9933 68.1194C37.7926 68.1637 38.6038 67.8568 39.5314 67.3466C40.4647 66.8332 41.6136 66.0561 43.0987 65.0527L42.7542 64.5428ZM34.2909 66.0514L33.8008 66.4236C34.5648 67.4296 35.732 68.0496 36.9933 68.1194L37.0273 67.505L37.0613 66.8905C36.1604 66.8407 35.3267 66.3978 34.781 65.6792L34.2909 66.0514ZM33.5391 20.3523H34.1544C34.1544 18.5355 34.1551 17.2157 34.2459 16.2245C34.3372 15.2267 34.5133 14.6734 34.781 14.3209L34.2909 13.9487L33.8008 13.5765C33.3167 14.214 33.1168 15.0579 33.0202 16.1122C32.9231 17.173 32.9237 18.56 32.9237 20.3523H33.5391ZM42.7542 15.4573L43.0987 14.9474C41.6136 13.9439 40.4647 13.1669 39.5314 12.6535C38.6038 12.1433 37.7926 11.8364 36.9933 11.8806L37.0273 12.4951L37.0613 13.1095C37.5033 13.0851 38.0603 13.249 38.9382 13.7319C39.8104 14.2116 40.9043 14.95 42.4097 15.9672L42.7542 15.4573ZM34.2909 13.9487L34.781 14.3209C35.3267 13.6022 36.1604 13.1594 37.0613 13.1095L37.0273 12.4951L36.9933 11.8806C35.732 11.9505 34.5648 12.5704 33.8008 13.5765L34.2909 13.9487Z"
            fill="url(#paint0_linear_8332_42057)" fill-opacity="0.6"
            mask="url(#path-1-inside-1_8332_42057)" />
        <g>
            <mask id="path-3-inside-2_8332_42057" fill="white">
                <path fill-rule="evenodd" clip-rule="evenodd"
                    d="M17.7595 66.8777C15.3073 68.5346 12 66.7777 12 63.8183V16.1818C12 13.2223 15.3073 11.4655 17.7595 13.1223L53.0105 36.9406C55.1774 38.4047 55.1774 41.5954 53.0105 43.0595L17.7595 66.8777ZM68 12.9231C69.3595 12.9231 70.4615 14.0252 70.4615 15.3847V64.6154C70.4615 65.9749 69.3595 67.077 68 67.077H62.1539C60.7944 67.077 59.6923 65.9749 59.6923 64.6154V15.3847C59.6923 14.0252 60.7944 12.9231 62.1538 12.9231H68Z" />
            </mask>
            <path fill-rule="evenodd" clip-rule="evenodd"
                d="M17.7595 66.8777C15.3073 68.5346 12 66.7777 12 63.8183V16.1818C12 13.2223 15.3073 11.4655 17.7595 13.1223L53.0105 36.9406C55.1774 38.4047 55.1774 41.5954 53.0105 43.0595L17.7595 66.8777ZM68 12.9231C69.3595 12.9231 70.4615 14.0252 70.4615 15.3847V64.6154C70.4615 65.9749 69.3595 67.077 68 67.077H62.1539C60.7944 67.077 59.6923 65.9749 59.6923 64.6154V15.3847C59.6923 14.0252 60.7944 12.9231 62.1538 12.9231H68Z"
                fill="#f1eefe" />
            <path
                d="M53.0105 43.0595L52.666 42.5496L53.0105 43.0595ZM17.7595 66.8777L17.4149 66.3678L17.7595 66.8777ZM12 16.1818H11.3846V63.8183H12H12.6154V16.1818H12ZM53.0105 36.9406L53.3551 36.4307L18.104 12.6124L17.7595 13.1223L17.4149 13.6322L52.666 37.4505L53.0105 36.9406ZM17.7595 66.8777L18.104 67.3876L53.3551 43.5694L53.0105 43.0595L52.666 42.5496L17.4149 66.3678L17.7595 66.8777ZM70.4615 15.3847H71.0769C71.0769 13.6853 69.6993 12.3077 68 12.3077V12.9231V13.5385C69.0196 13.5385 69.8462 14.3651 69.8462 15.3847H70.4615ZM70.4615 64.6154H71.0769V15.3847H70.4615H69.8462V64.6154H70.4615ZM68 67.077V67.6924C69.6993 67.6924 71.0769 66.3148 71.0769 64.6154H70.4615H69.8462C69.8462 65.635 69.0196 66.4616 68 66.4616V67.077ZM62.1539 67.077V67.6924H68V67.077V66.4616H62.1539V67.077ZM59.6923 64.6154H59.0769C59.0769 66.3148 60.4545 67.6924 62.1539 67.6924V67.077V66.4616C61.1342 66.4616 60.3077 65.635 60.3077 64.6154H59.6923ZM59.6923 15.3847H59.0769V64.6154H59.6923H60.3077V15.3847H59.6923ZM62.1538 12.9231V12.3077C60.4545 12.3077 59.0769 13.6853 59.0769 15.3847H59.6923H60.3077C60.3077 14.3651 61.1343 13.5385 62.1538 13.5385V12.9231ZM68 12.9231V12.3077H62.1538V12.9231V13.5385H68V12.9231ZM53.0105 36.9406L52.666 37.4505C54.4717 38.6706 54.4717 41.3295 52.666 42.5496L53.0105 43.0595L53.3551 43.5694C55.8831 41.8613 55.8831 38.1389 53.3551 36.4307L53.0105 36.9406ZM12 63.8183H11.3846C11.3846 67.271 15.2432 69.3206 18.104 67.3876L17.7595 66.8777L17.4149 66.3678C15.3715 67.7485 12.6154 66.2845 12.6154 63.8183H12ZM12 16.1818H12.6154C12.6154 13.7156 15.3715 12.2515 17.4149 13.6322L17.7595 13.1223L18.104 12.6124C15.2432 10.6794 11.3846 12.7291 11.3846 16.1818H12Z"
                fill="url(#paint1_linear_8332_42057)" fill-opacity="0.6"
                mask="url(#path-3-inside-2_8332_42057)" />
        </g>
        <mask id="path-5-inside-3_8332_42057" fill="white">
            <path fill-rule="evenodd" clip-rule="evenodd"
                d="M42.7542 64.5428C39.7638 66.5634 38.2685 67.5737 37.0273 67.505C35.9462 67.4451 34.9458 66.9137 34.2909 66.0514C33.5391 65.0614 33.5391 63.2569 33.5391 59.6477V20.3523C33.5391 16.7432 33.5391 14.9387 34.2909 13.9487C34.9458 13.0863 35.9462 12.5549 37.0273 12.4951C38.2685 12.4264 39.7638 13.4367 42.7542 15.4573L71.8329 35.105C74.2593 36.7445 75.4725 37.5642 75.8966 38.5941C76.2675 39.4947 76.2675 40.5054 75.8966 41.406C75.4725 42.4359 74.2593 43.2556 71.8328 44.8951L42.7542 64.5428ZM89.5391 12.9231C90.8985 12.9231 92.0006 14.0252 92.0006 15.3847V64.6154C92.0006 65.9749 90.8985 67.077 89.5391 67.077H83.6929C82.3334 67.077 81.2314 65.9749 81.2314 64.6154V15.3847C81.2314 14.0252 82.3334 12.9231 83.6929 12.9231H89.5391Z" />
        </mask>
        <path fill-rule="evenodd" clip-rule="evenodd"
            d="M42.7542 64.5428C39.7638 66.5634 38.2685 67.5737 37.0273 67.505C35.9462 67.4451 34.9458 66.9137 34.2909 66.0514C33.5391 65.0614 33.5391 63.2569 33.5391 59.6477V20.3523C33.5391 16.7432 33.5391 14.9387 34.2909 13.9487C34.9458 13.0863 35.9462 12.5549 37.0273 12.4951C38.2685 12.4264 39.7638 13.4367 42.7542 15.4573L71.8329 35.105C74.2593 36.7445 75.4725 37.5642 75.8966 38.5941C76.2675 39.4947 76.2675 40.5054 75.8966 41.406C75.4725 42.4359 74.2593 43.2556 71.8328 44.8951L42.7542 64.5428ZM89.5391 12.9231C90.8985 12.9231 92.0006 14.0252 92.0006 15.3847V64.6154C92.0006 65.9749 90.8985 67.077 89.5391 67.077H83.6929C82.3334 67.077 81.2314 65.9749 81.2314 64.6154V15.3847C81.2314 14.0252 82.3334 12.9231 83.6929 12.9231H89.5391Z"
            fill="url(#paint2_linear_8332_42057)" />
        <path
            d="M75.8966 38.5941L75.3276 38.8284L75.8966 38.5941ZM71.8328 44.8951L71.4883 44.3852L71.8328 44.8951ZM75.8966 41.406L76.4656 41.6403L75.8966 41.406ZM34.2909 66.0514L33.8008 66.4236L34.2909 66.0514ZM42.7542 64.5428L42.4097 64.0329L42.7542 64.5428ZM37.0273 67.505L36.9933 68.1194L37.0273 67.505ZM34.2909 13.9487L33.8008 13.5765L34.2909 13.9487ZM42.7542 15.4573L42.4097 15.9672L42.7542 15.4573ZM33.5391 20.3523H32.9237V59.6477H33.5391H34.1544V20.3523H33.5391ZM71.8329 35.105L72.1774 34.5951L43.0987 14.9474L42.7542 15.4573L42.4097 15.9672L71.4883 35.6149L71.8329 35.105ZM42.7542 64.5428L43.0987 65.0527L72.1774 45.405L71.8328 44.8951L71.4883 44.3852L42.4097 64.0329L42.7542 64.5428ZM92.0006 15.3847H92.616C92.616 13.6853 91.2384 12.3077 89.5391 12.3077V12.9231V13.5385C90.5587 13.5385 91.3852 14.3651 91.3852 15.3847H92.0006ZM92.0006 64.6154H92.616V15.3847H92.0006H91.3852V64.6154H92.0006ZM89.5391 67.077V67.6923C91.2384 67.6923 92.616 66.3148 92.616 64.6154H92.0006H91.3852C91.3852 65.635 90.5587 66.4616 89.5391 66.4616V67.077ZM83.6929 67.077V67.6923H89.5391V67.077V66.4616H83.6929V67.077ZM81.2314 64.6154H80.616C80.616 66.3148 81.9936 67.6923 83.6929 67.6923V67.077V66.4616C82.6733 66.4616 81.8468 65.635 81.8468 64.6154H81.2314ZM81.2314 15.3847H80.616V64.6154H81.2314H81.8468V15.3847H81.2314ZM83.6929 12.9231V12.3077C81.9936 12.3077 80.616 13.6853 80.616 15.3847H81.2314H81.8468C81.8468 14.3651 82.6733 13.5385 83.6929 13.5385V12.9231ZM89.5391 12.9231V12.3077H83.6929V12.9231V13.5385H89.5391V12.9231ZM71.8329 35.105L71.4883 35.6149C72.7113 36.4412 73.5935 37.038 74.2264 37.5548C74.858 38.0706 75.1735 38.4544 75.3276 38.8284L75.8966 38.5941L76.4656 38.3598C76.1956 37.704 75.6924 37.163 75.0048 36.6015C74.3185 36.041 73.3808 35.4082 72.1774 34.5951L71.8329 35.105ZM71.8328 44.8951L72.1774 45.405C73.3808 44.5919 74.3184 43.9591 75.0048 43.3986C75.6924 42.8371 76.1956 42.2961 76.4656 41.6403L75.8966 41.406L75.3276 41.1717C75.1735 41.5457 74.858 41.9295 74.2264 42.4453C73.5935 42.9621 72.7113 43.5589 71.4883 44.3852L71.8328 44.8951ZM75.8966 38.5941L75.3276 38.8284C75.6366 39.5789 75.6366 40.4212 75.3276 41.1717L75.8966 41.406L76.4656 41.6403C76.8983 40.5896 76.8983 39.4105 76.4656 38.3598L75.8966 38.5941ZM33.5391 59.6477H32.9237C32.9237 61.4401 32.9231 62.8271 33.0202 63.8879C33.1168 64.9421 33.3167 65.7861 33.8008 66.4236L34.2909 66.0514L34.781 65.6792C34.5133 65.3267 34.3372 64.7734 34.2459 63.7756C34.1551 62.7843 34.1544 61.4645 34.1544 59.6477H33.5391ZM42.7542 64.5428L42.4097 64.0329C40.9043 65.05 39.8104 65.7884 38.9382 66.2682C38.0603 66.7511 37.5033 66.915 37.0613 66.8905L37.0273 67.505L36.9933 68.1194C37.7926 68.1637 38.6038 67.8568 39.5314 67.3466C40.4647 66.8332 41.6136 66.0561 43.0987 65.0527L42.7542 64.5428ZM34.2909 66.0514L33.8008 66.4236C34.5648 67.4296 35.732 68.0496 36.9933 68.1194L37.0273 67.505L37.0613 66.8905C36.1604 66.8407 35.3267 66.3978 34.781 65.6792L34.2909 66.0514ZM33.5391 20.3523H34.1544C34.1544 18.5355 34.1551 17.2157 34.2459 16.2245C34.3372 15.2267 34.5133 14.6734 34.781 14.3209L34.2909 13.9487L33.8008 13.5765C33.3167 14.214 33.1168 15.0579 33.0202 16.1122C32.9231 17.173 32.9237 18.56 32.9237 20.3523H33.5391ZM42.7542 15.4573L43.0987 14.9474C41.6136 13.9439 40.4647 13.1669 39.5314 12.6535C38.6038 12.1433 37.7926 11.8364 36.9933 11.8806L37.0273 12.4951L37.0613 13.1095C37.5033 13.0851 38.0603 13.249 38.9382 13.7319C39.8104 14.2116 40.9043 14.95 42.4097 15.9672L42.7542 15.4573ZM34.2909 13.9487L34.781 14.3209C35.3267 13.6022 36.1604 13.1594 37.0613 13.1095L37.0273 12.4951L36.9933 11.8806C35.732 11.9505 34.5648 12.5704 33.8008 13.5765L34.2909 13.9487Z"
            fill="url(#paint3_linear_8332_42057)" fill-opacity="0.6"
            mask="url(#path-5-inside-3_8332_42057)" />
    </g>
    <path
        d="M108.791 43.7692V12.3551H114.33L116.722 18.7797V43.7692H108.791ZM130.458 43.7692L112.114 20.4634L114.33 12.3551L132.718 35.6609L130.458 43.7692ZM130.458 43.7692L128.42 37.1674V12.3551H136.351V43.7692H130.458ZM152.082 44.2566C149.749 44.2566 147.666 43.7692 145.835 42.7945C144.033 41.7902 142.6 40.4314 141.537 38.7182C140.473 36.9754 139.942 35.0258 139.942 32.8695C139.942 30.7132 140.459 28.7932 141.493 27.1095C142.556 25.3963 144.003 24.0523 145.835 23.0775C147.666 22.0732 149.734 21.5711 152.038 21.5711C154.342 21.5711 156.395 22.0732 158.197 23.0775C160.028 24.0523 161.475 25.3963 162.539 27.1095C163.602 28.7932 164.134 30.7132 164.134 32.8695C164.134 35.0258 163.602 36.9754 162.539 38.7182C161.505 40.4314 160.072 41.7902 158.241 42.7945C156.439 43.7692 154.386 44.2566 152.082 44.2566ZM152.038 37.3889C152.894 37.3889 153.633 37.2117 154.253 36.8572C154.903 36.4732 155.405 35.9415 155.76 35.2622C156.114 34.5828 156.291 33.8 156.291 32.9138C156.291 32.0277 156.099 31.2597 155.715 30.6098C155.361 29.9305 154.873 29.4135 154.253 29.0591C153.633 28.6751 152.894 28.4831 152.038 28.4831C151.211 28.4831 150.472 28.6751 149.822 29.0591C149.173 29.4431 148.67 29.9748 148.316 30.6542C147.961 31.304 147.784 32.072 147.784 32.9582C147.784 33.8148 147.961 34.5828 148.316 35.2622C148.67 35.9415 149.173 36.4732 149.822 36.8572C150.472 37.2117 151.211 37.3889 152.038 37.3889ZM167.724 43.7692V12.3551H173.44L185.491 30.5655H182.789L194.796 12.3551H200.512V43.7692H192.669V25.4702L193.91 25.8246L186.688 36.68H181.548L174.37 25.8246L175.611 25.4702V43.7692H167.724ZM216.516 44.2566C214.094 44.2566 211.953 43.784 210.092 42.8388C208.231 41.864 206.769 40.52 205.705 38.8068C204.642 37.0935 204.11 35.1292 204.11 32.9138C204.11 30.728 204.627 28.7932 205.661 27.1095C206.695 25.3963 208.098 24.0523 209.87 23.0775C211.672 22.0732 213.695 21.5711 215.94 21.5711C218.126 21.5711 220.061 22.0437 221.745 22.9889C223.458 23.9046 224.787 25.1895 225.732 26.8437C226.707 28.4683 227.194 30.3292 227.194 32.4265C227.194 32.8695 227.165 33.3274 227.106 33.8C227.076 34.2431 226.988 34.76 226.84 35.3508L207.743 35.4394V30.4769L223.783 30.344L220.327 32.5151C220.297 31.304 220.12 30.3145 219.795 29.5465C219.47 28.7489 218.997 28.1434 218.377 27.7298C217.757 27.3163 216.974 27.1095 216.029 27.1095C215.054 27.1095 214.212 27.3458 213.503 27.8185C212.794 28.2911 212.248 28.9557 211.864 29.8123C211.48 30.6689 211.288 31.7028 211.288 32.9138C211.288 34.1545 211.495 35.2178 211.908 36.104C212.322 36.9606 212.913 37.6105 213.681 38.0535C214.449 38.4966 215.394 38.7182 216.516 38.7182C217.58 38.7182 218.51 38.5409 219.308 38.1865C220.135 37.832 220.873 37.2855 221.523 36.5471L225.555 40.5791C224.492 41.7902 223.192 42.7058 221.656 43.3262C220.149 43.9465 218.436 44.2566 216.516 44.2566ZM230.106 43.7692V22.1028H237.815V43.7692H230.106ZM237.815 31.9834L234.359 29.0591C235.216 26.6074 236.353 24.7612 237.771 23.5206C239.189 22.28 241.035 21.6597 243.31 21.6597C244.343 21.6597 245.23 21.7926 245.968 22.0585C246.736 22.3243 247.386 22.7378 247.918 23.2991L243.442 29.2806C243.206 29.0148 242.866 28.808 242.423 28.6603C242.01 28.4831 241.537 28.3945 241.006 28.3945C240.001 28.3945 239.218 28.7046 238.657 29.3249C238.096 29.9157 237.815 30.8018 237.815 31.9834ZM259.564 44.2566C257.26 44.2566 255.177 43.7692 253.316 42.7945C251.485 41.8197 250.038 40.4757 248.974 38.7625C247.911 37.0492 247.379 35.1145 247.379 32.9582C247.379 30.7723 247.911 28.8228 248.974 27.1095C250.067 25.3963 251.529 24.0523 253.361 23.0775C255.222 22.0732 257.319 21.5711 259.652 21.5711C261.336 21.5711 262.872 21.8517 264.26 22.4129C265.649 22.9742 266.919 23.816 268.071 24.9385L263.197 29.8123C262.754 29.3692 262.237 29.0443 261.646 28.8375C261.085 28.6012 260.42 28.4831 259.652 28.4831C258.825 28.4831 258.072 28.6751 257.393 29.0591C256.743 29.4135 256.211 29.9157 255.798 30.5655C255.414 31.2154 255.222 31.9982 255.222 32.9138C255.222 33.8 255.414 34.5828 255.798 35.2622C256.211 35.912 256.743 36.4289 257.393 36.8129C258.072 37.1969 258.825 37.3889 259.652 37.3889C260.48 37.3889 261.188 37.256 261.779 36.9902C262.37 36.7243 262.887 36.3403 263.33 35.8382L268.248 40.712C267.037 41.8935 265.723 42.7797 264.305 43.3705C262.916 43.9612 261.336 44.2566 259.564 44.2566ZM277.507 43.8135L268.823 22.1028H277.064L282.381 39.9588H279.147L284.508 22.1028H292.749L283.843 43.8135H277.507ZM272.368 52.9409L278.792 38.8068L283.843 43.8135L280.122 52.9409H272.368ZM303.162 43.7692V12.5766H311.093V43.7692H303.162ZM293.548 19.1785V12.3551H320.708V19.1785H293.548ZM332.933 43.7692L321.103 12.3551H329.566L338.427 37.7434H334.794L343.788 12.3551H352.074L340.111 43.7692H332.933Z"
        fill="#f1eefe" />
    <path
        d="M113.263 67.5385V52.5477H116.644V67.5385H113.263ZM108.503 55.2831V52.3323H121.404V55.2831H108.503ZM130.336 67.5385V61.5723C130.336 61.0267 130.163 60.5887 129.819 60.2585C129.488 59.9138 129.065 59.7415 128.548 59.7415C128.189 59.7415 127.873 59.8205 127.6 59.9785C127.327 60.122 127.112 60.3374 126.954 60.6246C126.796 60.8974 126.717 61.2133 126.717 61.5723L125.446 60.9477C125.446 60.1292 125.619 59.4113 125.963 58.7938C126.308 58.1764 126.789 57.7026 127.406 57.3723C128.024 57.0277 128.735 56.8554 129.539 56.8554C130.357 56.8554 131.075 57.0277 131.693 57.3723C132.31 57.7026 132.784 58.1692 133.114 58.7723C133.459 59.361 133.631 60.0503 133.631 60.84V67.5385H130.336ZM123.422 67.5385V51.9015H126.717V67.5385H123.422ZM141.347 67.7754C140.213 67.7754 139.201 67.5456 138.311 67.0862C137.435 66.6123 136.745 65.959 136.243 65.1262C135.74 64.2933 135.489 63.3528 135.489 62.3046C135.489 61.2564 135.733 60.3231 136.221 59.5046C136.724 58.6718 137.399 58.0185 138.246 57.5446C139.093 57.0708 140.048 56.8338 141.111 56.8338C142.144 56.8338 143.056 57.0564 143.846 57.5015C144.636 57.9467 145.253 58.5641 145.698 59.3538C146.158 60.1436 146.387 61.0482 146.387 62.0677C146.387 62.2544 146.373 62.4554 146.344 62.6708C146.33 62.8718 146.294 63.1087 146.237 63.3815L137.212 63.4031V61.1415L144.837 61.12L143.415 62.0677C143.401 61.4646 143.308 60.9692 143.135 60.5815C142.963 60.1795 142.704 59.8779 142.36 59.6769C142.03 59.4615 141.62 59.3538 141.132 59.3538C140.615 59.3538 140.163 59.4759 139.775 59.72C139.402 59.9497 139.107 60.28 138.892 60.7108C138.691 61.1415 138.591 61.6656 138.591 62.2831C138.591 62.9005 138.698 63.4318 138.914 63.8769C139.143 64.3077 139.459 64.6451 139.861 64.8892C140.278 65.119 140.766 65.2338 141.326 65.2338C141.843 65.2338 142.31 65.1477 142.726 64.9754C143.142 64.7887 143.509 64.5159 143.824 64.1569L145.634 65.9662C145.117 66.5692 144.492 67.0215 143.76 67.3231C143.028 67.6246 142.223 67.7754 141.347 67.7754ZM153.243 67.5385V52.3323H156.624V67.5385H153.243ZM155.827 67.5385V64.6092H164.163V67.5385H155.827ZM155.827 61.1846V58.3631H163.409V61.1846H155.827ZM155.827 55.24V52.3323H164.055V55.24H155.827ZM167.959 67.5385V56.6185C167.959 55.7138 168.145 54.9097 168.519 54.2062C168.906 53.4882 169.459 52.921 170.177 52.5046C170.895 52.0882 171.742 51.88 172.719 51.88C173.695 51.88 174.513 52.081 175.174 52.4831C175.835 52.8708 176.323 53.3877 176.639 54.0338C176.969 54.6656 177.134 55.3477 177.134 56.08L174.592 56.4031C174.592 55.8718 174.449 55.4554 174.162 55.1538C173.875 54.8523 173.465 54.7015 172.934 54.7015C172.388 54.7015 171.972 54.8523 171.685 55.1538C171.398 55.441 171.254 55.8503 171.254 56.3815V67.5385H167.959ZM165.654 59.8708V57.0708H180.903V59.8708H165.654ZM174.592 67.5385V56.1877C174.592 55.3262 174.779 54.5579 175.152 53.8831C175.54 53.1938 176.079 52.6554 176.768 52.2677C177.457 51.8656 178.276 51.6646 179.223 51.6646C179.941 51.6646 180.566 51.7867 181.097 52.0308C181.643 52.2605 182.117 52.5836 182.519 53L180.451 55.0677C180.307 54.9241 180.142 54.8164 179.956 54.7446C179.783 54.6585 179.575 54.6154 179.331 54.6154C178.886 54.6154 178.534 54.7446 178.276 55.0031C178.017 55.2615 177.888 55.6133 177.888 56.0585V67.5385H174.592ZM187.659 67.7754C186.582 67.7754 185.606 67.5385 184.73 67.0646C183.868 66.5764 183.186 65.9159 182.684 65.0831C182.181 64.2503 181.93 63.3169 181.93 62.2831C181.93 61.2492 182.181 60.3231 182.684 59.5046C183.186 58.6862 183.868 58.04 184.73 57.5662C185.591 57.0779 186.568 56.8338 187.659 56.8338C188.75 56.8338 189.727 57.0708 190.588 57.5446C191.45 58.0185 192.132 58.6718 192.634 59.5046C193.137 60.3231 193.388 61.2492 193.388 62.2831C193.388 63.3169 193.137 64.2503 192.634 65.0831C192.132 65.9159 191.45 66.5764 190.588 67.0646C189.727 67.5385 188.75 67.7754 187.659 67.7754ZM187.659 64.7815C188.133 64.7815 188.549 64.681 188.908 64.48C189.267 64.2646 189.54 63.9703 189.727 63.5969C189.928 63.2092 190.028 62.7713 190.028 62.2831C190.028 61.7949 189.928 61.3713 189.727 61.0123C189.526 60.639 189.246 60.3518 188.887 60.1508C188.542 59.9354 188.133 59.8277 187.659 59.8277C187.199 59.8277 186.79 59.9354 186.431 60.1508C186.072 60.3518 185.792 60.639 185.591 61.0123C185.39 61.3856 185.29 61.8164 185.29 62.3046C185.29 62.7785 185.39 63.2092 185.591 63.5969C185.792 63.9703 186.072 64.2646 186.431 64.48C186.79 64.681 187.199 64.7815 187.659 64.7815ZM195.46 67.5385V57.0708H198.755V67.5385H195.46ZM198.755 61.7877L197.376 60.7108C197.649 59.4903 198.109 58.5426 198.755 57.8677C199.401 57.1928 200.298 56.8554 201.447 56.8554C201.95 56.8554 202.388 56.9344 202.761 57.0923C203.149 57.2359 203.486 57.4656 203.773 57.7815L201.813 60.2585C201.67 60.1005 201.49 59.9785 201.275 59.8923C201.06 59.8062 200.815 59.7631 200.543 59.7631C199.997 59.7631 199.559 59.9354 199.229 60.28C198.913 60.6103 198.755 61.1128 198.755 61.7877ZM206.673 67.5385V52.7415H209.969V67.5385H206.673ZM204.304 59.8708V57.0708H212.338V59.8708H204.304ZM214.221 67.5385V51.9015H217.516V67.5385H214.221ZM225.437 67.7754C224.302 67.7754 223.29 67.5456 222.4 67.0862C221.524 66.6123 220.835 65.959 220.332 65.1262C219.83 64.2933 219.578 63.3528 219.578 62.3046C219.578 61.2564 219.822 60.3231 220.311 59.5046C220.813 58.6718 221.488 58.0185 222.335 57.5446C223.182 57.0708 224.137 56.8338 225.2 56.8338C226.234 56.8338 227.145 57.0564 227.935 57.5015C228.725 57.9467 229.342 58.5641 229.787 59.3538C230.247 60.1436 230.477 61.0482 230.477 62.0677C230.477 62.2544 230.462 62.4554 230.434 62.6708C230.419 62.8718 230.383 63.1087 230.326 63.3815L221.301 63.4031V61.1415L228.926 61.12L227.504 62.0677C227.49 61.4646 227.397 60.9692 227.224 60.5815C227.052 60.1795 226.794 59.8779 226.449 59.6769C226.119 59.4615 225.71 59.3538 225.221 59.3538C224.704 59.3538 224.252 59.4759 223.864 59.72C223.491 59.9497 223.197 60.28 222.981 60.7108C222.78 61.1415 222.68 61.6656 222.68 62.2831C222.68 62.9005 222.787 63.4318 223.003 63.8769C223.233 64.3077 223.548 64.6451 223.951 64.8892C224.367 65.119 224.855 65.2338 225.415 65.2338C225.932 65.2338 226.399 65.1477 226.815 64.9754C227.232 64.7887 227.598 64.5159 227.914 64.1569L229.723 65.9662C229.206 66.5692 228.581 67.0215 227.849 67.3231C227.117 67.6246 226.313 67.7754 225.437 67.7754ZM236.31 67.7969C235.693 67.7969 235.083 67.7179 234.48 67.56C233.891 67.402 233.338 67.1795 232.821 66.8923C232.319 66.5908 231.888 66.2462 231.529 65.8585L233.403 63.9631C233.747 64.3364 234.157 64.6308 234.63 64.8462C235.104 65.0472 235.621 65.1477 236.181 65.1477C236.569 65.1477 236.863 65.0903 237.064 64.9754C237.28 64.8605 237.387 64.7026 237.387 64.5015C237.387 64.2431 237.258 64.0492 237 63.92C236.756 63.7764 236.44 63.6544 236.052 63.5538C235.664 63.439 235.255 63.3169 234.824 63.1877C234.393 63.0585 233.984 62.879 233.597 62.6492C233.209 62.4195 232.893 62.1036 232.649 61.7015C232.405 61.2851 232.283 60.761 232.283 60.1292C232.283 59.4544 232.455 58.8728 232.8 58.3846C233.144 57.882 233.632 57.4872 234.264 57.2C234.896 56.9128 235.636 56.7692 236.483 56.7692C237.373 56.7692 238.191 56.9272 238.938 57.2431C239.699 57.5446 240.317 57.9969 240.79 58.6L238.917 60.4954C238.586 60.1077 238.213 59.8349 237.797 59.6769C237.395 59.519 237 59.44 236.612 59.44C236.239 59.44 235.959 59.4974 235.772 59.6123C235.585 59.7128 235.492 59.8636 235.492 60.0646C235.492 60.28 235.614 60.4523 235.858 60.5815C236.102 60.7108 236.418 60.8256 236.806 60.9262C237.193 61.0267 237.603 61.1487 238.033 61.2923C238.464 61.4359 238.873 61.6297 239.261 61.8738C239.649 62.1179 239.965 62.4482 240.209 62.8646C240.453 63.2667 240.575 63.7979 240.575 64.4585C240.575 65.4779 240.187 66.2892 239.412 66.8923C238.651 67.4954 237.617 67.7969 236.31 67.7969ZM246.606 67.7969C245.989 67.7969 245.378 67.7179 244.775 67.56C244.186 67.402 243.634 67.1795 243.117 66.8923C242.614 66.5908 242.183 66.2462 241.824 65.8585L243.698 63.9631C244.043 64.3364 244.452 64.6308 244.926 64.8462C245.4 65.0472 245.917 65.1477 246.477 65.1477C246.864 65.1477 247.159 65.0903 247.36 64.9754C247.575 64.8605 247.683 64.7026 247.683 64.5015C247.683 64.2431 247.554 64.0492 247.295 63.92C247.051 63.7764 246.735 63.6544 246.347 63.5538C245.96 63.439 245.551 63.3169 245.12 63.1877C244.689 63.0585 244.28 62.879 243.892 62.6492C243.504 62.4195 243.189 62.1036 242.944 61.7015C242.7 61.2851 242.578 60.761 242.578 60.1292C242.578 59.4544 242.751 58.8728 243.095 58.3846C243.44 57.882 243.928 57.4872 244.56 57.2C245.192 56.9128 245.931 56.7692 246.778 56.7692C247.669 56.7692 248.487 56.9272 249.234 57.2431C249.995 57.5446 250.612 57.9969 251.086 58.6L249.212 60.4954C248.882 60.1077 248.509 59.8349 248.092 59.6769C247.69 59.519 247.295 59.44 246.907 59.44C246.534 59.44 246.254 59.4974 246.067 59.6123C245.881 59.7128 245.787 59.8636 245.787 60.0646C245.787 60.28 245.91 60.4523 246.154 60.5815C246.398 60.7108 246.714 60.8256 247.101 60.9262C247.489 61.0267 247.898 61.1487 248.329 61.2923C248.76 61.4359 249.169 61.6297 249.557 61.8738C249.944 62.1179 250.26 62.4482 250.504 62.8646C250.749 63.2667 250.871 63.7979 250.871 64.4585C250.871 65.4779 250.483 66.2892 249.707 66.8923C248.946 67.4954 247.913 67.7969 246.606 67.7969ZM257.923 67.5385V52.3323H261.305V67.5385H257.923ZM260.508 67.5385V64.6092H268.843V67.5385H260.508ZM260.508 61.1846V58.3631H268.089V61.1846H260.508ZM260.508 55.24V52.3323H268.735V55.24H260.508ZM278.217 67.5385V61.5723C278.217 61.0267 278.045 60.5887 277.7 60.2585C277.37 59.9138 276.947 59.7415 276.43 59.7415C276.071 59.7415 275.755 59.8205 275.482 59.9785C275.209 60.122 274.994 60.3374 274.836 60.6246C274.678 60.8974 274.599 61.2133 274.599 61.5723L273.328 60.9477C273.328 60.1292 273.508 59.4113 273.867 58.7938C274.226 58.1764 274.721 57.7026 275.353 57.3723C275.999 57.0277 276.724 56.8554 277.528 56.8554C278.304 56.8554 278.986 57.042 279.574 57.4154C280.177 57.7744 280.651 58.2554 280.996 58.8585C281.34 59.4615 281.513 60.122 281.513 60.84V67.5385H278.217ZM271.304 67.5385V57.0708H274.599V67.5385H271.304ZM289.122 67.7754C288.045 67.7754 287.068 67.5385 286.192 67.0646C285.316 66.5908 284.627 65.9374 284.125 65.1046C283.622 64.2718 283.371 63.3385 283.371 62.3046C283.371 61.2564 283.622 60.3231 284.125 59.5046C284.642 58.6718 285.338 58.0185 286.214 57.5446C287.09 57.0708 288.073 56.8338 289.165 56.8338C289.983 56.8338 290.73 56.9774 291.405 57.2646C292.094 57.5374 292.704 57.9538 293.235 58.5138L291.125 60.6246C290.881 60.3518 290.593 60.1508 290.263 60.0215C289.947 59.8923 289.581 59.8277 289.165 59.8277C288.691 59.8277 288.267 59.9354 287.894 60.1508C287.535 60.3518 287.248 60.639 287.032 61.0123C286.831 61.3713 286.731 61.7949 286.731 62.2831C286.731 62.7713 286.831 63.202 287.032 63.5754C287.248 63.9487 287.542 64.2431 287.915 64.4585C288.289 64.6738 288.705 64.7815 289.165 64.7815C289.595 64.7815 289.976 64.7097 290.306 64.5662C290.651 64.4082 290.945 64.1928 291.189 63.92L293.278 66.0308C292.733 66.6051 292.115 67.0431 291.426 67.3446C290.737 67.6318 289.969 67.7754 289.122 67.7754ZM299.963 67.7754C298.887 67.7754 297.91 67.5385 297.034 67.0646C296.173 66.5764 295.491 65.9159 294.988 65.0831C294.486 64.2503 294.234 63.3169 294.234 62.2831C294.234 61.2492 294.486 60.3231 294.988 59.5046C295.491 58.6862 296.173 58.04 297.034 57.5662C297.896 57.0779 298.872 56.8338 299.963 56.8338C301.055 56.8338 302.031 57.0708 302.893 57.5446C303.754 58.0185 304.436 58.6718 304.939 59.5046C305.441 60.3231 305.693 61.2492 305.693 62.2831C305.693 63.3169 305.441 64.2503 304.939 65.0831C304.436 65.9159 303.754 66.5764 302.893 67.0646C302.031 67.5385 301.055 67.7754 299.963 67.7754ZM299.963 64.7815C300.437 64.7815 300.854 64.681 301.213 64.48C301.572 64.2646 301.844 63.9703 302.031 63.5969C302.232 63.2092 302.333 62.7713 302.333 62.2831C302.333 61.7949 302.232 61.3713 302.031 61.0123C301.83 60.639 301.55 60.3518 301.191 60.1508C300.847 59.9354 300.437 59.8277 299.963 59.8277C299.504 59.8277 299.095 59.9354 298.736 60.1508C298.377 60.3518 298.097 60.639 297.896 61.0123C297.695 61.3856 297.594 61.8164 297.594 62.3046C297.594 62.7785 297.695 63.2092 297.896 63.5969C298.097 63.9703 298.377 64.2646 298.736 64.48C299.095 64.681 299.504 64.7815 299.963 64.7815ZM312.223 67.7538C311.232 67.7538 310.349 67.5169 309.573 67.0431C308.812 66.5692 308.209 65.9231 307.764 65.1046C307.333 64.2862 307.118 63.3528 307.118 62.3046C307.118 61.2564 307.333 60.3231 307.764 59.5046C308.209 58.6862 308.812 58.04 309.573 57.5662C310.349 57.0923 311.232 56.8554 312.223 56.8554C312.941 56.8554 313.587 56.9918 314.161 57.2646C314.75 57.5374 315.231 57.9179 315.604 58.4062C315.992 58.88 316.207 59.4256 316.25 60.0431V64.4585C316.207 65.0759 315.999 65.6359 315.626 66.1385C315.252 66.6267 314.771 67.0215 314.183 67.3231C313.594 67.6103 312.941 67.7538 312.223 67.7538ZM312.804 64.7815C313.278 64.7815 313.687 64.681 314.032 64.48C314.376 64.2646 314.649 63.9703 314.85 63.5969C315.051 63.2236 315.152 62.7928 315.152 62.3046C315.152 61.8164 315.051 61.3928 314.85 61.0338C314.664 60.6605 314.391 60.3662 314.032 60.1508C313.687 59.9354 313.285 59.8277 312.826 59.8277C312.366 59.8277 311.957 59.9354 311.598 60.1508C311.253 60.3662 310.973 60.6605 310.758 61.0338C310.557 61.4072 310.456 61.8308 310.456 62.3046C310.456 62.7785 310.557 63.202 310.758 63.5754C310.959 63.9487 311.239 64.2431 311.598 64.4585C311.957 64.6738 312.359 64.7815 312.804 64.7815ZM318.253 67.5385H315.023V64.7169L315.518 62.1754L314.958 59.6338V51.9015H318.253V67.5385ZM326.174 67.7754C325.039 67.7754 324.027 67.5456 323.137 67.0862C322.261 66.6123 321.572 65.959 321.069 65.1262C320.566 64.2933 320.315 63.3528 320.315 62.3046C320.315 61.2564 320.559 60.3231 321.047 59.5046C321.55 58.6718 322.225 58.0185 323.072 57.5446C323.919 57.0708 324.874 56.8338 325.937 56.8338C326.971 56.8338 327.882 57.0564 328.672 57.5015C329.462 57.9467 330.079 58.5641 330.524 59.3538C330.984 60.1436 331.214 61.0482 331.214 62.0677C331.214 62.2544 331.199 62.4554 331.171 62.6708C331.156 62.8718 331.12 63.1087 331.063 63.3815L322.038 63.4031V61.1415L329.663 61.12L328.241 62.0677C328.227 61.4646 328.134 60.9692 327.961 60.5815C327.789 60.1795 327.531 59.8779 327.186 59.6769C326.856 59.4615 326.446 59.3538 325.958 59.3538C325.441 59.3538 324.989 59.4759 324.601 59.72C324.228 59.9497 323.934 60.28 323.718 60.7108C323.517 61.1415 323.417 61.6656 323.417 62.2831C323.417 62.9005 323.524 63.4318 323.74 63.8769C323.969 64.3077 324.285 64.6451 324.687 64.8892C325.104 65.119 325.592 65.2338 326.152 65.2338C326.669 65.2338 327.136 65.1477 327.552 64.9754C327.968 64.7887 328.335 64.5159 328.651 64.1569L330.46 65.9662C329.943 66.5692 329.318 67.0215 328.586 67.3231C327.854 67.6246 327.049 67.7754 326.174 67.7754ZM333.235 67.5385V57.0708H336.53V67.5385H333.235ZM336.53 61.7877L335.152 60.7108C335.425 59.4903 335.884 58.5426 336.53 57.8677C337.177 57.1928 338.074 56.8554 339.223 56.8554C339.725 56.8554 340.163 56.9344 340.537 57.0923C340.924 57.2359 341.262 57.4656 341.549 57.7815L339.589 60.2585C339.445 60.1005 339.266 59.9785 339.05 59.8923C338.835 59.8062 338.591 59.7631 338.318 59.7631C337.772 59.7631 337.334 59.9354 337.004 60.28C336.688 60.6103 336.53 61.1128 336.53 61.7877Z"
        fill="#6e56cf" />
    <defs>
        <linearGradient id="paint0_linear_8332_42057" x1="29.2314" y1="8.44644" x2="55.0811"
            y2="50.495" gradientUnits="userSpaceOnUse">
            <stop stop-color="white" />
            <stop offset="1" stop-color="white" stop-opacity="0" />
        </linearGradient>
        <linearGradient id="paint1_linear_8332_42057" x1="7.69231" y1="8.43655" x2="33.5538"
            y2="50.4911" gradientUnits="userSpaceOnUse">
            <stop stop-color="white" />
            <stop offset="1" stop-color="white" stop-opacity="0" />
        </linearGradient>
        <linearGradient id="paint2_linear_8332_42057" x1="62.7698" y1="12.4918" x2="62.7698"
            y2="67.5083" gradientUnits="userSpaceOnUse">
            <stop stop-color="white" stop-opacity="0.4" />
            <stop offset="0.5" stop-color="white" stop-opacity="0.1" />
            <stop offset="1" stop-color="white" stop-opacity="0" />
        </linearGradient>
        <linearGradient id="paint3_linear_8332_42057" x1="29.2314" y1="8.44644" x2="50.6495"
            y2="33.9348" gradientUnits="userSpaceOnUse">
            <stop stop-color="white" />
            <stop offset="1" stop-color="white" stop-opacity="0" />
        </linearGradient>
        <clipPath id="clip0_8332_42057">
            <rect width="80" height="80" fill="white" transform="translate(12)" />
        </clipPath>
    </defs>
</svg>
